<?xml version="1.0" encoding="UTF-8"?>
<svg id="Layer_2" data-name="Layer 2" xmlns="http://www.w3.org/2000/svg" viewBox="0 0 52.05 48.01">
  <defs>
    <style>
      .cls-1 {
        fill: #005a85;
        stroke-width: 0px;
      }
    </style>
  </defs>
  <g id="Layer_2-2" data-name="Layer 2">
    <g id="Layer_1-2" data-name="Layer 1-2">
      <path class="cls-1" d="M51.24,10.95c.83,1.19,1.02,2.53.56,4.03l-8.59,28.31c-.4,1.33-1.19,2.45-2.39,3.36-1.2.91-2.47,1.36-3.83,1.36H8.14c-1.6,0-3.15-.56-4.64-1.67-1.49-1.11-2.53-2.48-3.11-4.11-.5-1.4-.52-2.72-.06-3.97.66-2.08,1.58-4.91,2.74-8.26.59-1.71,1.72-4.97,3.31-9.16,2.89-7.63,2.65-6.47,3.43-8.98,0,0,.67-2.17,3.07-8.63.01-.03.2-.51.5-1.12.2-.41.4-.74.61-1,.21-.26.48-.51.83-.73.18-.12.38-.21.58-.27.24-.07.44-.08.54-.09.43-.02,1.55-.03,3.04-.02h23.78c1.54,0,2.73.58,3.56,1.75.83,1.17,1.02,2.52.56,4.06l-8.56,28.31c-.75,2.48-1.49,4.08-2.23,4.8s-2.08,1.08-4.02,1.08H4.89c-.56,0-.96.16-1.19.47-.23.33-.24.78-.03,1.34.5,1.46,2,2.19,4.5,2.19h28.84c.6,0,1.19-.16,1.75-.48.56-.32.93-.76,1.09-1.3l9.38-30.84c.15-.46.2-1.05.16-1.78.79.31,1.41.76,1.84,1.34h0ZM17.99,11.01c-.08.27-.06.51.06.7s.33.3.62.3h19c.27,0,.54-.1.8-.3s.43-.43.52-.7l.66-2c.08-.27.06-.51-.06-.7-.12-.2-.33-.3-.62-.3h-19c-.27,0-.54.1-.8.3-.26.2-.43.43-.52.7,0,0-.66,2-.66,2ZM15.39,19.01c-.08.27-.06.51.06.7.12.2.33.3.62.3h19c.27,0,.54-.1.8-.3.26-.2.43-.43.52-.7l.66-2c.08-.27.06-.51-.06-.7-.12-.2-.33-.3-.62-.3h-19c-.27,0-.54.1-.8.3-.26.2-.43.43-.52.7,0,0-.66,2-.66,2Z"/>
    </g>
  </g>
</svg>