<?xml version="1.0" encoding="UTF-8"?>
<svg id="Layer_2" data-name="Layer 2" xmlns="http://www.w3.org/2000/svg" viewBox="0 0 44 47.38">
  <defs>
    <style>
      .cls-1 {
        fill: #005a85;
        stroke-width: 0px;
      }
    </style>
  </defs>
  <g id="Layer_1-2" data-name="Layer 1">
    <path class="cls-1" d="M3.38,44h7.62v-7.62H3.38v7.62ZM12.69,44h8.46v-7.62h-8.46v7.62ZM3.38,34.69h7.62v-8.46H3.38v8.46ZM12.69,34.69h8.46v-8.46h-8.46v8.46ZM3.38,24.54h7.62v-7.62H3.38v7.62ZM22.85,44h8.46v-7.62h-8.46v7.62ZM12.69,24.54h8.46v-7.62h-8.46v7.62ZM33,44h7.62v-7.62h-7.62v7.62ZM22.85,34.69h8.46v-8.46h-8.46v8.46ZM13.54,11.85v-7.62c0-.23-.08-.43-.25-.59-.17-.17-.37-.25-.6-.25h-1.69c-.23,0-.43.08-.6.25-.17.17-.25.37-.25.59v7.62c0,.23.08.43.25.59.17.17.37.25.6.25h1.69c.23,0,.43-.08.6-.25.17-.17.25-.37.25-.59ZM33,34.69h7.62v-8.46h-7.62v8.46ZM22.85,24.54h8.46v-7.62h-8.46v7.62ZM33,24.54h7.62v-7.62h-7.62v7.62ZM33.85,11.85v-7.62c0-.23-.08-.43-.25-.59-.17-.17-.37-.25-.6-.25h-1.69c-.23,0-.43.08-.59.25-.17.17-.25.37-.25.59v7.62c0,.23.08.43.25.59.17.17.37.25.59.25h1.69c.23,0,.43-.08.6-.25.17-.17.25-.37.25-.59ZM44,10.15v33.85c0,.92-.33,1.71-1,2.38-.67.67-1.46,1-2.38,1H3.38c-.92,0-1.71-.33-2.38-1-.67-.67-1-1.46-1-2.38V10.15c0-.92.33-1.71,1-2.38.67-.67,1.46-1,2.38-1h3.38v-2.54c0-1.16.41-2.16,1.24-2.99.83-.83,1.82-1.24,2.99-1.24h1.69c1.16,0,2.16.41,2.99,1.24.83.83,1.24,1.82,1.24,2.99v2.54h10.15v-2.54c0-1.16.41-2.16,1.24-2.99.83-.83,1.82-1.24,2.99-1.24h1.69c1.16,0,2.16.41,2.99,1.24.83.83,1.24,1.82,1.24,2.99v2.54h3.38c.92,0,1.71.33,2.38,1,.67.67,1,1.46,1,2.38Z"/>
  </g>
</svg>