<?xml version="1.0" encoding="UTF-8"?>
<svg id="Layer_2" data-name="Layer 2" xmlns="http://www.w3.org/2000/svg" viewBox="0 0 48 48">
  <defs>
    <style>
      .cls-1 {
        fill: #005a85;
        stroke-width: 0px;
      }
    </style>
  </defs>
  <g id="Layer_1-2" data-name="Layer 1">
    <path class="cls-1" d="M28,13v14c0,.29-.09.53-.28.72-.19.19-.43.28-.72.28h-10c-.29,0-.53-.09-.72-.28-.19-.19-.28-.43-.28-.72v-2c0-.29.09-.53.28-.72.19-.19.43-.28.72-.28h7v-11c0-.29.09-.53.28-.72.19-.19.43-.28.72-.28h2c.29,0,.53.09.72.28.19.19.28.43.28.72ZM38.72,32.53s.38-.65,1.14-1.95c.76-1.3,1.14-3.49,1.14-6.58s-.76-5.93-2.28-8.53c-1.52-2.6-3.58-4.67-6.19-6.19-2.6-1.52-5.45-2.28-8.53-2.28s-5.93.76-8.53,2.28c-2.6,1.52-4.67,3.58-6.19,6.19-1.52,2.6-2.28,5.45-2.28,8.53s.76,5.93,2.28,8.53c1.52,2.6,3.58,4.67,6.19,6.19,2.6,1.52,5.45,2.28,8.53,2.28s5.93-.76,8.53-2.28c2.6-1.52,4.67-3.58,6.19-6.19ZM44.78,11.95s.54.92,1.61,2.76c1.07,1.84,1.61,4.93,1.61,9.29s-1.07,8.37-3.22,12.05c-2.15,3.68-5.06,6.59-8.73,8.73-3.68,2.15-7.69,3.22-12.05,3.22s-8.37-1.07-12.05-3.22c-3.68-2.15-6.59-5.06-8.73-8.73-2.15-3.68-3.22-7.69-3.22-12.05s1.07-8.37,3.22-12.05c2.15-3.68,5.06-6.59,8.73-8.73,3.68-2.15,7.69-3.22,12.05-3.22s8.37,1.07,12.05,3.22c3.68,2.15,6.59,5.06,8.73,8.73Z"/>
  </g>
</svg>