<svg width="48" height="64" viewBox="0 0 48 64" fill="none" xmlns="http://www.w3.org/2000/svg">
<g id="Group 135207">
<g id="Group 135142">
<g id="Vector" filter="url(#filter0_d_287_24350)">
<path d="M45.9964 17.444V56.4529C45.9964 58.4114 44.4949 59.9966 42.6453 59.9966H5.35105C3.49902 59.9966 2 58.4089 2 56.4529V3.54786C2 1.58936 3.50144 0.00415039 5.35105 0.00415039H29.5047C34.7174 0.093638 45.9988 10.6787 45.9988 17.444H45.9964Z" fill="#E2E2E2"/>
</g>
<path id="Vector_2" d="M14.4376 31.9502C13.2335 30.6769 14.5367 28.9306 18.0691 27.0744L20.291 25.9059L21.1566 23.9014C21.6329 22.7994 22.3437 21.002 22.7354 19.9051L23.4487 17.9134L22.9579 16.4381C22.3534 14.6253 22.1382 11.9024 22.5202 10.9231C23.0401 9.59614 24.7422 9.73165 25.4167 11.1558C25.9438 12.2654 25.8882 14.2776 25.2644 16.814L24.7519 18.8926L25.2016 19.7006C25.4482 20.1455 26.1735 21.2014 26.8094 22.0477L28.0062 23.6227L29.4955 23.4181C34.2271 22.7662 35.8471 23.8758 35.8471 25.4661C35.8471 27.4732 32.1333 27.6394 29.012 25.323C28.3108 24.8014 27.8273 24.2849 27.8273 24.2849C27.8273 24.2849 25.8737 24.7068 24.9114 24.9803C23.9177 25.2641 23.4221 25.4406 21.969 25.9596C21.969 25.9596 21.4588 26.7445 21.1252 27.3121C19.8873 29.4317 18.4439 31.1882 17.4115 31.83C16.2558 32.5459 15.0445 32.5945 14.4352 31.9502H14.4376ZM16.3259 31.2368C17.0029 30.7945 18.3713 29.084 19.3191 27.4937L19.7035 26.8494L17.9579 27.7775C15.2596 29.2118 14.0266 30.5644 14.6673 31.38C15.0275 31.8402 15.4579 31.8019 16.3283 31.2343L16.3259 31.2368ZM33.8475 26.0363C34.51 25.5454 34.4133 24.5585 33.6662 24.1622C33.0835 23.8528 32.6145 23.7889 31.1034 23.8119C30.1749 23.8784 28.6807 24.0778 28.4269 24.1366C28.4269 24.1366 29.2465 24.7375 29.6116 24.9573C30.0976 25.2514 31.275 25.7934 32.1358 26.0721C32.9844 26.3457 33.4752 26.3175 33.8475 26.0363ZM26.8021 22.94C26.4008 22.4951 25.7214 21.567 25.2886 20.8767C24.7253 20.0943 24.44 19.5421 24.44 19.5421C24.44 19.5421 24.0265 20.9457 23.688 21.7895L22.6315 24.5508L22.3244 25.1772C22.3244 25.1772 23.9516 24.6122 24.7809 24.3846C25.6585 24.1417 27.438 23.771 27.438 23.771L26.7973 22.9426L26.8021 22.94ZM24.5318 13.3112C24.6334 12.4061 24.6769 11.501 24.4013 11.0433C23.6373 10.1612 22.7161 10.8975 22.8732 12.9941C22.9264 13.6998 23.0908 14.9066 23.3133 15.6506L23.717 17.0032L23.9999 15.9856C24.1571 15.4256 24.3964 14.2214 24.5318 13.3112Z" fill="#FF2116"/>
<path id="Vector_3" d="M16 36.0012H17.9536C18.5774 36.0012 19.0851 36.0651 19.4744 36.1904C19.8636 36.3132 20.19 36.5867 20.456 37.0163C20.7219 37.4407 20.8549 37.9521 20.8549 38.5503C20.8549 39.1 20.7461 39.5731 20.5309 39.9668C20.3157 40.3631 20.0232 40.6469 19.6581 40.8233C19.2954 40.9997 18.7369 41.0867 17.9826 41.0867H17.3056V44.344H16V36.0038V36.0012ZM17.3056 37.07V39.9796H17.9536C18.5314 39.9796 18.9304 39.8645 19.1504 39.637C19.3728 39.4094 19.4864 39.0387 19.4864 38.5248C19.4864 38.1413 19.4139 37.8319 19.2664 37.5967C19.1189 37.3563 18.9594 37.2106 18.7804 37.1569C18.6064 37.1006 18.3307 37.0725 17.9536 37.0725H17.3056V37.07ZM21.8534 36.0012H23.6281C24.4864 36.0012 25.1731 36.1623 25.6856 36.4845C26.2006 36.8066 26.5899 37.2847 26.8534 37.9214C27.1194 38.558 27.2524 39.2611 27.2524 40.0358C27.2524 40.8514 27.1339 41.5776 26.8945 42.2168C26.66 42.8534 26.2973 43.3648 25.8089 43.756C25.323 44.1472 24.6291 44.3415 23.7296 44.3415H21.8583V36.0012H21.8534ZM23.1591 37.1083V43.2369H23.7031C24.4622 43.2369 25.0135 42.9608 25.3544 42.406C25.6977 41.8486 25.8694 41.1046 25.8694 40.1765C25.8694 38.131 25.1465 37.1083 23.7031 37.1083H23.1591ZM28.5048 36.0012H32.8834V37.1083H29.8104V39.6012H32.2717V40.7083H29.8104V44.344H28.5048V36.0038V36.0012Z" fill="#2C2C2C"/>
<path id="Vector_4" d="M29.5024 0.00280093H33.7021C35.484 0.00280093 37.191 0.75194 38.4506 2.08403L44.026 7.97998C45.2857 9.31207 45.9941 11.1197 45.9941 13.0015V17.4427C45.9941 15.1646 44.2461 13.316 42.0918 13.316H37.1329C35.073 13.316 33.4023 11.5493 33.4023 9.37088V4.1269C33.4023 1.84625 31.6542 0.000244141 29.5 0.000244141L29.5024 0.00280093Z" fill="#B7B7B7"/>
<path id="Vector_5" d="M15.7623 50.6711C15.4471 50.342 14.9382 50.342 14.623 50.6711L11.8048 53.6139V44.8416C11.8048 44.3769 11.4443 44.0005 10.9993 44.0005C10.5544 44.0005 10.1938 44.3769 10.1938 44.8416V53.6139L7.37563 50.6711C7.06043 50.342 6.55159 50.342 6.2364 50.6711C5.9212 51.0003 5.9212 51.5316 6.2364 51.8607L9.63143 55.4079C9.96722 55.7586 10.3957 55.9436 10.8366 55.9823C10.8901 55.993 10.9437 55.9995 10.9993 55.9995C11.055 55.9995 11.1106 55.993 11.1621 55.9823C11.6009 55.9436 12.0314 55.7586 12.3672 55.4079L15.7643 51.8607C16.0775 51.5316 16.0775 51.0003 15.7643 50.6711H15.7623Z" fill="#B7B7B7"/>
</g>
</g>
<defs>
<filter id="filter0_d_287_24350" x="0.000164866" y="0.00415039" width="47.9997" height="63.9921" filterUnits="userSpaceOnUse" color-interpolation-filters="sRGB">
<feFlood flood-opacity="0" result="BackgroundImageFix"/>
<feColorMatrix in="SourceAlpha" type="matrix" values="0 0 0 0 0 0 0 0 0 0 0 0 0 0 0 0 0 0 127 0" result="hardAlpha"/>
<feOffset dy="1.99984"/>
<feGaussianBlur stdDeviation="0.999918"/>
<feComposite in2="hardAlpha" operator="out"/>
<feColorMatrix type="matrix" values="0 0 0 0 0 0 0 0 0 0 0 0 0 0 0 0 0 0 0.25 0"/>
<feBlend mode="normal" in2="BackgroundImageFix" result="effect1_dropShadow_287_24350"/>
<feBlend mode="normal" in="SourceGraphic" in2="effect1_dropShadow_287_24350" result="shape"/>
</filter>
</defs>
</svg>
