<svg width="36" height="26" viewBox="0 0 36 26" fill="none" xmlns="http://www.w3.org/2000/svg">
<path d="M35.084 1.5625H11.0312V2.4489H35.084V1.5625Z" fill="white"/>
<path d="M18.0938 7.54759L20.1912 9.59814L22.2575 7.50623L24.856 10.1497L27.4973 7.44517L30.164 10.1753L35.0646 5.15628L33.0314 3.07422L30.1874 5.95601L27.5226 3.25741L24.8462 5.96586L22.2458 3.36181L18.0938 7.54759Z" fill="white"/>
<path d="M15.873 21.2827L11.8281 17.1639L13.8593 15.1094L17.91 19.2124L15.873 21.2827Z" fill="white"/>
<path d="M15.8285 5.8016L14.3295 4.30851L12.8324 5.8016L11.0312 4.02683L11.5927 3.44377L12.8285 4.6611L14.3295 3.16406L15.8285 4.6611L17.0449 3.44574L17.6122 4.02486L15.8285 5.8016Z" fill="white"/>
<path d="M5.62127 3.67188L0.703125 8.64164L5.62127 13.6114L10.5394 8.64164L5.62127 3.67188ZM4.13783 8.62194L5.56474 7.18006L7.00139 8.63179L5.57448 10.0737L4.13783 8.62194Z" fill="white"/>
<path d="M24.7509 16.3924L14.2401 5.79297L12.1875 7.82184L20.6885 16.3845L17.9146 19.2052L19.9244 21.2794" fill="white"/>
<path d="M35.0731 18.4541L30.1628 13.4922L25.2524 18.4541L27.6423 20.869H22.5V23.414H30.1452V23.3963L30.1628 23.414L35.0731 18.4521V18.4541ZM30.1803 17.0043L31.6072 18.4462L30.1803 19.8881L28.7534 18.4462L30.1803 17.0043Z" fill="white"/>
<path d="M5.61347 23.414L5.63102 23.3963V23.414H13.2763V20.869H8.13395L10.5238 18.4541L5.61347 13.4922L0.703125 18.4541L5.61347 23.4159V23.414ZM7.02478 18.4442L5.59788 19.8861L4.17097 18.4442L5.59788 17.0023L7.02478 18.4442Z" fill="white"/>
<path d="M10.4394 11.6448L8.40625 13.6992L10.4104 15.7244L12.4435 13.67L10.4394 11.6448Z" fill="white"/>
<path d="M32.171 9.79624L30.1641 11.8242L32.1627 13.8438L34.1696 11.8159L32.171 9.79624Z" fill="white"/>
<path d="M28.1788 9.79624L26.1719 11.8242L28.1705 13.8438L30.1774 11.8159L28.1788 9.79624Z" fill="white"/>
<path d="M7.58505 -0.000639974L5.57812 2.02734L7.57678 4.04697L9.5837 2.01899L7.58505 -0.000639974Z" fill="white"/>
<path d="M3.58505 -0.000639974L1.57812 2.02734L3.57678 4.04697L5.5837 2.01899L3.58505 -0.000639974Z" fill="white"/>
<path d="M19.9054 21.3861L17.8984 23.4141L19.8971 25.4337L21.904 23.4057L19.9054 21.3861Z" fill="white"/>
<path d="M15.9054 21.39L13.8984 23.418L15.8971 25.4376L17.904 23.4096L15.9054 21.39Z" fill="white"/>
</svg>
